<svg xmlns="http://www.w3.org/2000/svg" xmlns:xlink="http://www.w3.org/1999/xlink" id="Layer_1" x="0" y="0" version="1.1" viewBox="0 0 509.287 509.287" xml:space="preserve" style="enable-background:new 0 0 509.287 509.287"><circle style="fill:#fbd303" cx="254.644" cy="254.644" r="254.644"/><rect style="fill:#4f5565" width="267.528" height="259.391" x="120.032" y="167.841"/><polygon style="fill:#fcfcfd" points="489.282 153.6 254.644 27.126 20.005 153.6"/><g><polygon style="fill:#f1f3f7" points="393.324 132.238 254.644 57.642 115.963 132.238"/><rect style="fill:#f1f3f7" width="418.416" height="28.482" x="45.436" y="153.6"/></g><g><path style="fill:#dededf" d="M61.033,182.082v15.597c0,3.73,5.425,7.121,11.868,7.121h86.464c6.442,0,11.868-3.052,11.868-7.121 v-15.597H61.033z"/><path style="fill:#dededf" d="M171.232,427.232v-15.597c0-3.73-5.425-7.121-11.868-7.121H72.901 c-6.442,0-11.868,3.052-11.868,7.121v15.597H171.232z"/></g><rect style="fill:#f1f3f7" width="69.51" height="200.053" x="81.377" y="204.461"/><g><path style="fill:#dededf" d="M199.714,182.082v15.597c0,3.73,5.425,7.121,11.868,7.121h86.464c6.442,0,11.868-3.052,11.868-7.121 v-15.597H199.714z"/><path style="fill:#dededf" d="M309.573,427.232v-15.597c0-3.73-5.425-7.121-11.868-7.121h-86.124 c-6.442,0-11.868,3.052-11.868,7.121v15.597H309.573z"/></g><rect style="fill:#f1f3f7" width="69.51" height="200.053" x="220.058" y="204.461"/><g><path style="fill:#dededf" d="M338.056,182.082v15.597c0,3.73,5.425,7.121,11.868,7.121h86.464c6.442,0,11.868-3.052,11.868-7.121 v-15.597H338.056z"/><path style="fill:#dededf" d="M448.254,427.232v-15.597c0-3.73-5.425-7.121-11.868-7.121h-86.464 c-6.442,0-11.868,3.052-11.868,7.121v15.597H448.254z"/></g><rect style="fill:#f1f3f7" width="69.51" height="200.053" x="358.4" y="204.461"/><rect style="fill:#646b79" width="418.416" height="24.074" x="45.436" y="427.232"/><rect style="fill:#4f5565" width="468.938" height="24.074" x="20.005" y="451.306"/></svg>