<svg xmlns="http://www.w3.org/2000/svg" xmlns:xlink="http://www.w3.org/1999/xlink" id="Layer_1" x="0" y="0" version="1.1" viewBox="0 0 496.2 496.2" xml:space="preserve" style="enable-background:new 0 0 496.2 496.2"><path style="fill:#25b7d3" d="M496.2,248.1C496.2,111.1,385.1,0,248.1,0S0,111.1,0,248.1s111.1,248.1,248.1,248.1	S496.2,385.1,496.2,248.1z"/><path style="fill:#91c5ce" d="M281.3,149.6c-23-36.3-33.1-72.8-33.1-72.8l0,0c0,0-10.1,36.5-33.1,72.8	c-28.2,56.9-73.4,86.8-73.4,158.4c0,61.5,45,111.4,106.5,111.4l0,0c61.5,0,106.5-49.9,106.5-111.4	C354.6,236.4,309.5,206.4,281.3,149.6z"/><path style="fill:#b9e4ea" d="M281.3,149.6c-23-36.3-33.1-72.8-33.1-72.8s-61.6,342.6,0,342.6l0,0c61.5,0,106.5-49.9,106.5-111.4	C354.6,236.4,309.5,206.4,281.3,149.6z"/><path style="fill:#f2f7f7" d="M254.2,401.2L254.2,401.2c48.2,0,83.4-39.1,83.4-87.2C337.6,258,206,401.2,254.2,401.2z"/></svg>