<svg xmlns="http://www.w3.org/2000/svg" xmlns:xlink="http://www.w3.org/1999/xlink" id="Capa_1" x="0" y="0" version="1.1" viewBox="0 0 512 512" xml:space="preserve" style="enable-background:new 0 0 512 512"><path style="fill:#2195f2" d="M73.763,182.237h312.407v303.729c0,14.379,11.654,26.034,26.034,26.034l0,0H73.763V182.237h312.407"/><path style="fill:#3f51b4" d="M438.237,130.169l-52.068,52.068v303.729c0,14.379,11.654,26.034,26.034,26.034l0,0l0,0	c14.379,0,26.034-11.654,26.034-26.034l0,0V130.169z"/><polygon style="fill:#b7e5ff" points="73.763 182.237 125.831 130.169 438.237 130.169 386.169 182.237"/><g><path style="fill:#e01717" d="M325.424,260.339h-17.356V147.525c0-43.138-34.964-78.102-78.102-78.102 s-78.102,34.964-78.102,78.102v112.814h-17.356V147.525c0-52.719,42.739-95.458,95.458-95.458s95.458,42.739,95.458,95.458V260.339 z"/><path style="fill:#e01717" d="M394.847,130.169h-17.356V95.458c0-43.138-34.964-78.102-78.102-78.102 s-78.102,34.964-78.102,78.102v34.712h-17.356V95.458C203.932,42.739,246.671,0,299.39,0s95.458,42.739,95.458,95.458V130.169z"/></g><g><path style="fill:#fec007" d="M143.186,234.305L143.186,234.305c14.379,0,26.034,11.655,26.034,26.034l0,0 c0,14.379-11.655,26.034-26.034,26.034l0,0c-14.379,0-26.034-11.655-26.034-26.034l0,0 C117.153,245.96,128.807,234.305,143.186,234.305z"/><path style="fill:#fec007" d="M316.746,234.305L316.746,234.305c14.379,0,26.034,11.655,26.034,26.034l0,0 c0,14.379-11.655,26.034-26.034,26.034l0,0c-14.379,0-26.034-11.655-26.034-26.034l0,0 C290.712,245.96,302.366,234.305,316.746,234.305z"/></g></svg>