<svg xmlns="http://www.w3.org/2000/svg" xmlns:xlink="http://www.w3.org/1999/xlink" id="Layer_1" x="0" y="0" version="1.1" viewBox="0 0 512 512" xml:space="preserve" style="enable-background:new 0 0 512 512"><path style="fill:#3d3d3b" d="M394.542,512c26.504,0,48.188-21.685,48.188-48.188V48.188C442.73,21.685,421.045,0,394.542,0	H117.458C90.955,0,69.27,21.685,69.27,48.188v415.623c0,26.504,21.685,48.188,48.188,48.188H394.542z"/><g><rect style="fill:#ada7a4" width="53.007" height="53.007" x="129.506" y="398.759"/><rect style="fill:#ada7a4" width="53.007" height="53.007" x="229.496" y="398.759"/></g><rect style="fill:#7a7674" width="53.007" height="152.998" x="329.487" y="298.768"/><g><rect style="fill:#ada7a4" width="53.007" height="53.007" x="129.506" y="298.768"/><rect style="fill:#ada7a4" width="53.007" height="53.007" x="229.496" y="298.768"/><rect style="fill:#ada7a4" width="53.007" height="53.007" x="129.506" y="198.777"/><rect style="fill:#ada7a4" width="53.007" height="53.007" x="229.496" y="198.777"/></g><rect style="fill:#ee3840" width="53.007" height="53.007" x="329.487" y="198.777"/><g><polygon style="fill:#95a53b" points="129.506 60.235 129.506 150.589 168.23 150.589 258.583 105.412 258.583 60.235"/><polygon style="fill:#95a53b" points="382.494 60.235 343.769 60.235 253.416 105.412 253.416 150.589 382.494 150.589"/></g><polygon style="fill:#fff" points="258.583 60.235 168.23 150.589 253.416 150.589 343.769 60.235"/></svg>