<svg xmlns="http://www.w3.org/2000/svg" xmlns:xlink="http://www.w3.org/1999/xlink" id="Layer_1" x="0" y="0" version="1.1" viewBox="0 0 483.2 483.2" xml:space="preserve" style="enable-background:new 0 0 483.2 483.2"><polygon style="fill:#dd7b19" points="355.2 224 128 224 157.6 8 325.6 8"/><polyline style="fill:#c6640c" points="161.6 8 325.6 8 355.2 224"/><path style="fill:#dd7b19" d="M393.6,318.4c0,18.4-6.4,33.6-20,33.6h-264c-13.6,0-20-15.2-20-33.6v-47.2c0-18.4,14.4-31.2,28-31.2	h248c13.6,0,28,12.8,28,31.2V318.4z"/><path style="fill:#db681b" d="M393.6,272v46.4c0,18.4-6.4,33.6-20,33.6h-264c-13.6,0-20-15.2-20-33.6V272"/><g><circle style="fill:#daedea" cx="196" cy="83.2" r="8.8"/><circle style="fill:#daedea" cx="287.2" cy="83.2" r="8.8"/><circle style="fill:#daedea" cx="196" cy="165.6" r="8.8"/><circle style="fill:#daedea" cx="287.2" cy="165.6" r="8.8"/></g><path style="fill:#dd7b19" d="M326.4,8c0,4.8-4,8-8.8,8H164.8c-4.8,0-8.8-3.2-8.8-8l0,0c0-4.8,4-8,8.8-8h152.8	C323.2,0,326.4,3.2,326.4,8L326.4,8z"/><g><path style="fill:#00233f" d="M340,372c0,5.6-4.8,12-10.4,12h-176c-5.6,0-10.4-6.4-10.4-12l0,0c0-5.6,4.8-12,10.4-12h176 C335.2,360,340,366.4,340,372L340,372z"/><path style="fill:#00233f" d="M249.6,448.8c0,4-3.2,7.2-7.2,7.2h-1.6c-4,0-7.2-3.2-7.2-7.2v-65.6c0-4,3.2-7.2,7.2-7.2h1.6 c4,0,7.2,3.2,7.2,7.2V448.8z"/><path style="fill:#00233f" d="M321.6,448.8c0,4-3.2,7.2-7.2,7.2H168.8c-4,0-7.2-3.2-7.2-7.2v-1.6c0-4,3.2-7.2,7.2-7.2h145.6 c4,0,7.2,3.2,7.2,7.2V448.8z"/><circle style="fill:#00233f" cx="168.8" cy="469.6" r="13.6"/><circle style="fill:#00233f" cx="241.6" cy="469.6" r="13.6"/><circle style="fill:#00233f" cx="314.4" cy="469.6" r="13.6"/></g><path style="fill:#dd7b19" d="M121.6,340c0,15.2-12.8,12-28,12l0,0c-15.2,0-28-12.8-28-28V215.2c0-15.2,12.8-28,28-28l0,0	c15.2,0,28,12.8,28,28V340z"/><path style="fill:#db681b" d="M121.6,216v124c0,15.2-12.8,12-28,12l0,0c-15.2,0-28-12.8-28-28V216"/><g><circle style="fill:#00233f" cx="91.2" cy="225.6" r="8"/><circle style="fill:#00233f" cx="91.2" cy="266.4" r="8"/><circle style="fill:#00233f" cx="91.2" cy="307.2" r="8"/></g><path style="fill:#dd7b19" d="M361.6,340c0,15.2,12.8,12,28,12l0,0c15.2,0,28-12.8,28-28V215.2c0-15.2-12.8-28-28-28l0,0	c-15.2,0-28,12.8-28,28V340z"/><path style="fill:#db681b" d="M361.6,216v124c0,15.2,12.8,12,28,12l0,0c15.2,0,28-12.8,28-28V216"/><g><circle style="fill:#00233f" cx="392" cy="225.6" r="8"/><circle style="fill:#00233f" cx="392" cy="266.4" r="8"/><circle style="fill:#00233f" cx="392" cy="307.2" r="8"/></g><g><path style="fill:#dd7b19" d="M177.6,335.2c0,2.4-1.6,4-4,4l0,0c-2.4,0-4-1.6-4-4V268c0-2.4,1.6-4,4-4l0,0c2.4,0,4,1.6,4,4V335.2z"/><path style="fill:#dd7b19" d="M241.6,335.2c0,2.4-1.6,4-4,4l0,0c-2.4,0-4-1.6-4-4V268c0-2.4,1.6-4,4-4l0,0c2.4,0,4,1.6,4,4V335.2z"/><path style="fill:#dd7b19" d="M313.6,335.2c0,2.4-1.6,4-4,4l0,0c-2.4,0-4-1.6-4-4V268c0-2.4,1.6-4,4-4l0,0c2.4,0,4,1.6,4,4V335.2z"/></g><path style="fill:#f99d4b" d="M345.6,257.6c0,3.2-2.4,6.4-6.4,6.4H144c-3.2,0-6.4-2.4-6.4-6.4v-4c0-3.2,2.4-6.4,6.4-6.4h196	c3.2,0,6.4,2.4,6.4,6.4v4H345.6z"/></svg>