<svg xmlns="http://www.w3.org/2000/svg" xmlns:xlink="http://www.w3.org/1999/xlink" id="Capa_1" x="0" y="0" version="1.1" viewBox="0 0 58 58" xml:space="preserve" style="enable-background:new 0 0 58 58"><rect style="fill:#ecf0f1" width="58" height="58"/><rect style="fill:#546a79" width="58" height="12"/><circle style="fill:#ed7161" cx="6" cy="6" r="3"/><circle style="fill:#f0c419" cx="15" cy="6" r="3"/><circle style="fill:#4fba6f" cx="24" cy="6" r="3"/><rect style="fill:#95a5a5" width="7" height="46" y="12"/><g><path style="fill:#bdc3c7" d="M3,18h1c0.553,0,1-0.447,1-1s-0.447-1-1-1H3c-0.553,0-1,0.447-1,1S2.447,18,3,18z"/><path style="fill:#bdc3c7" d="M4,20H3c-0.553,0-1,0.447-1,1s0.447,1,1,1h1c0.553,0,1-0.447,1-1S4.553,20,4,20z"/><path style="fill:#bdc3c7" d="M4,24H3c-0.553,0-1,0.447-1,1s0.447,1,1,1h1c0.553,0,1-0.447,1-1S4.553,24,4,24z"/><path style="fill:#bdc3c7" d="M4,28H3c-0.553,0-1,0.447-1,1s0.447,1,1,1h1c0.553,0,1-0.447,1-1S4.553,28,4,28z"/><path style="fill:#bdc3c7" d="M4,32H3c-0.553,0-1,0.447-1,1s0.447,1,1,1h1c0.553,0,1-0.447,1-1S4.553,32,4,32z"/><path style="fill:#bdc3c7" d="M4,36H3c-0.553,0-1,0.447-1,1s0.447,1,1,1h1c0.553,0,1-0.447,1-1S4.553,36,4,36z"/><path style="fill:#bdc3c7" d="M4,40H3c-0.553,0-1,0.447-1,1s0.447,1,1,1h1c0.553,0,1-0.447,1-1S4.553,40,4,40z"/><path style="fill:#bdc3c7" d="M4,44H3c-0.553,0-1,0.447-1,1s0.447,1,1,1h1c0.553,0,1-0.447,1-1S4.553,44,4,44z"/><path style="fill:#bdc3c7" d="M4,48H3c-0.553,0-1,0.447-1,1s0.447,1,1,1h1c0.553,0,1-0.447,1-1S4.553,48,4,48z"/><path style="fill:#bdc3c7" d="M4,52H3c-0.553,0-1,0.447-1,1s0.447,1,1,1h1c0.553,0,1-0.447,1-1S4.553,52,4,52z"/></g><path style="fill:#8697cb" d="M25,18H12c-0.553,0-1-0.447-1-1s0.447-1,1-1h13c0.553,0,1,0.447,1,1S25.553,18,25,18z"/><path style="fill:#f0c419" d="M39,18H29c-0.553,0-1-0.447-1-1s0.447-1,1-1h10c0.553,0,1,0.447,1,1S39.553,18,39,18z"/><path style="fill:#4fba6f" d="M45,18h-2c-0.553,0-1-0.447-1-1s0.447-1,1-1h2c0.553,0,1,0.447,1,1S45.553,18,45,18z"/><path style="fill:#8697cb" d="M50,22H35c-0.553,0-1-0.447-1-1s0.447-1,1-1h15c0.553,0,1,0.447,1,1S50.553,22,50,22z"/><path style="fill:#e64c3c" d="M31,22H17c-0.553,0-1-0.447-1-1s0.447-1,1-1h14c0.553,0,1,0.447,1,1S31.553,22,31,22z"/><path style="fill:#e64c3c" d="M13,22h-1c-0.553,0-1-0.447-1-1s0.447-1,1-1h1c0.553,0,1,0.447,1,1S13.553,22,13,22z"/><path style="fill:#8697cb" d="M21,26h-9c-0.553,0-1-0.447-1-1s0.447-1,1-1h9c0.553,0,1,0.447,1,1S21.553,26,21,26z"/><path style="fill:#f0c419" d="M27,26h-2c-0.553,0-1-0.447-1-1s0.447-1,1-1h2c0.553,0,1,0.447,1,1S27.553,26,27,26z"/><path style="fill:#4fba6f" d="M45,26H31c-0.553,0-1-0.447-1-1s0.447-1,1-1h14c0.553,0,1,0.447,1,1S45.553,26,45,26z"/><path style="fill:#f0c419" d="M25,30H12c-0.553,0-1-0.447-1-1s0.447-1,1-1h13c0.553,0,1,0.447,1,1S25.553,30,25,30z"/><path style="fill:#4fba6f" d="M39,30H29c-0.553,0-1-0.447-1-1s0.447-1,1-1h10c0.553,0,1,0.447,1,1S39.553,30,39,30z"/><path style="fill:#f0c419" d="M43,34h-8c-0.553,0-1-0.447-1-1s0.447-1,1-1h8c0.553,0,1,0.447,1,1S43.553,34,43,34z"/><path style="fill:#8697cb" d="M31,34H17c-0.553,0-1-0.447-1-1s0.447-1,1-1h14c0.553,0,1,0.447,1,1S31.553,34,31,34z"/><path style="fill:#4fba6f" d="M13,34h-1c-0.553,0-1-0.447-1-1s0.447-1,1-1h1c0.553,0,1,0.447,1,1S13.553,34,13,34z"/><path style="fill:#f0c419" d="M21,38h-9c-0.553,0-1-0.447-1-1s0.447-1,1-1h9c0.553,0,1,0.447,1,1S21.553,38,21,38z"/><path style="fill:#8697cb" d="M27,38h-2c-0.553,0-1-0.447-1-1s0.447-1,1-1h2c0.553,0,1,0.447,1,1S27.553,38,27,38z"/><path style="fill:#e64c3c" d="M46,38H31c-0.553,0-1-0.447-1-1s0.447-1,1-1h15c0.553,0,1,0.447,1,1S46.553,38,46,38z"/><path style="fill:#8697cb" d="M25,42H12c-0.553,0-1-0.447-1-1s0.447-1,1-1h13c0.553,0,1,0.447,1,1S25.553,42,25,42z"/><path style="fill:#4fba6f" d="M39,42H29c-0.553,0-1-0.447-1-1s0.447-1,1-1h10c0.553,0,1,0.447,1,1S39.553,42,39,42z"/><path style="fill:#e64c3c" d="M50,42h-7c-0.553,0-1-0.447-1-1s0.447-1,1-1h7c0.553,0,1,0.447,1,1S50.553,42,50,42z"/><path style="fill:#8697cb" d="M39,46h-4c-0.553,0-1-0.447-1-1s0.447-1,1-1h4c0.553,0,1,0.447,1,1S39.553,46,39,46z"/><path style="fill:#e64c3c" d="M31,46H17c-0.553,0-1-0.447-1-1s0.447-1,1-1h14c0.553,0,1,0.447,1,1S31.553,46,31,46z"/><path style="fill:#f0c419" d="M13,46h-1c-0.553,0-1-0.447-1-1s0.447-1,1-1h1c0.553,0,1,0.447,1,1S13.553,46,13,46z"/><path style="fill:#4fba6f" d="M21,50h-9c-0.553,0-1-0.447-1-1s0.447-1,1-1h9c0.553,0,1,0.447,1,1S21.553,50,21,50z"/><path style="fill:#8697cb" d="M27,50h-2c-0.553,0-1-0.447-1-1s0.447-1,1-1h2c0.553,0,1,0.447,1,1S27.553,50,27,50z"/><path style="fill:#e64c3c" d="M38,50h-7c-0.553,0-1-0.447-1-1s0.447-1,1-1h7c0.553,0,1,0.447,1,1S38.553,50,38,50z"/><path style="fill:#f0c419" d="M43,50h-1c-0.553,0-1-0.447-1-1s0.447-1,1-1h1c0.553,0,1,0.447,1,1S43.553,50,43,50z"/></svg>