<svg xmlns="http://www.w3.org/2000/svg" xmlns:xlink="http://www.w3.org/1999/xlink" id="Layer_1" x="0" y="0" version="1.1" viewBox="0 0 509.287 509.287" xml:space="preserve" style="enable-background:new 0 0 509.287 509.287"><circle style="fill:#f1f3f7" cx="254.644" cy="254.644" r="254.644"/><circle style="fill:#4f5565" cx="254.644" cy="254.644" r="254.644"/><polygon style="fill:#f0582f" points="352.636 195.306 268.546 195.306 297.028 87.481 323.815 87.481"/><rect style="fill:#d54232" width="101.383" height="79.004" x="259.73" y="195.306"/><path style="fill:#f0582f" d="M259.73,508.948c36.281-0.678,70.527-8.816,101.383-23.396V274.31H259.73V508.948z"/><g><rect style="fill:#f1f3f7" width="101.383" height="23.735" x="259.73" y="327.205"/><rect style="fill:#f1f3f7" width="101.383" height="14.919" x="259.73" y="364.842"/></g><polygon style="fill:#fbd303" points="240.742 195.306 156.652 195.306 185.473 87.481 211.921 87.481"/><rect style="fill:#f8b517" width="101.383" height="79.004" x="147.836" y="195.306"/><path style="fill:#fbd303" d="M147.836,485.891c30.856,14.241,65.102,22.718,101.383,23.396V274.31H147.836V485.891z"/><g><rect style="fill:#f1f3f7" width="101.383" height="23.735" x="147.836" y="327.205"/><rect style="fill:#f1f3f7" width="101.383" height="14.919" x="147.836" y="364.842"/></g><polygon style="fill:#6eb1e1" points="463.513 195.306 379.423 195.306 408.244 87.481 434.691 87.481"/><rect style="fill:#0090ff" width="101.383" height="79.004" x="370.946" y="195.306"/><path style="fill:#6eb1e1" d="M370.946,481.144c42.045-21.362,76.97-54.252,101.383-94.262V274.31H370.946L370.946,481.144	L370.946,481.144z"/><g><rect style="fill:#f1f3f7" width="101.383" height="23.735" x="370.946" y="327.205"/><rect style="fill:#f1f3f7" width="101.383" height="14.919" x="370.946" y="364.842"/></g><polygon style="fill:#73d658" points="129.865 195.306 45.775 195.306 74.596 87.481 101.044 87.481"/><rect style="fill:#61bc42" width="101.383" height="79.004" x="36.959" y="195.306"/><path style="fill:#73d658" d="M36.959,386.882c24.413,40.011,59.677,72.901,101.383,94.262V274.31H36.959V386.882z"/><g><rect style="fill:#f1f3f7" width="101.383" height="23.735" x="36.959" y="327.205"/><rect style="fill:#f1f3f7" width="101.383" height="14.919" x="36.959" y="364.842"/></g></svg>