<svg xmlns="http://www.w3.org/2000/svg" xmlns:xlink="http://www.w3.org/1999/xlink" id="Layer_1" x="0" y="0" version="1.1" viewBox="0 0 512 512" xml:space="preserve" style="enable-background:new 0 0 512 512"><polygon style="fill:#181818" points="315.53 173.614 0 372.303 196.47 483.978 322.683 404.503 346.948 364.765 385.788 364.765 512 285.29"/><polygon style="fill:#1f5985" points="315.53 125.083 0 323.772 196.47 435.448 512 236.759"/><polygon style="fill:#269af2" points="315.53 76.552 0 275.241 196.47 386.917 512 188.228"/><polygon style="fill:#bec8d6" points="315.53 28.022 189.319 107.497 189.319 147.235 126.212 147.235 0 226.71 196.47 338.386 512 139.697"/><polygon style="fill:#e6e2e0" points="189.319 107.497 126.212 147.235 322.681 258.911 354.235 263.75 385.788 219.172"/><polygon style="fill:#ccc4c1" points="322.681 258.911 322.681 404.503 385.788 364.765 385.788 219.172"/></svg>