<svg xmlns="http://www.w3.org/2000/svg" xmlns:xlink="http://www.w3.org/1999/xlink" id="Layer_1" x="0" y="0" version="1.1" viewBox="0 0 512 512" xml:space="preserve" style="enable-background:new 0 0 512 512"><polygon style="fill:#ccc4c1" points="267.774 370.75 475.603 219.602 471.143 192.842 291.054 323.816 363.516 177.726 341.778 166.944 256 339.876 170.224 166.944 148.486 177.726 220.947 323.816 40.859 192.842 36.397 219.602 244.228 370.75"/><path style="fill:#ee3840" d="M256,0C134.718,0,36.398,98.32,36.398,219.602c15.817-23.412,42.603-39.208,72.984-39.208	c30.553,0,57.46,15.574,73.243,39.208l36.845-87.739h72.796l36.843,87.739c15.781-23.634,42.69-39.208,73.243-39.208	s57.469,15.574,73.25,39.208C475.602,98.32,377.283,0,256,0z"/><rect style="fill:#ffb14d" width="69.326" height="48.531" x="221.337" y="367.184"/><path style="fill:#ffe1d6" d="M256,0c-40.427,0-73.289,98.32-73.289,219.602c15.781-23.634,42.603-39.208,73.155-39.208	s57.507,15.574,73.289,39.208C329.155,98.32,296.429,0,256,0z"/><polygon style="fill:#ff9e24" points="334.155 403.579 177.846 403.579 177.846 452.109 256 476.375 334.155 452.109"/><rect style="fill:#ffb14d" width="156.306" height="59.887" x="177.841" y="452.113"/></svg>